<?xml version="1.0" encoding="UTF-8"?>
<svg width="52px" height="52px" viewBox="0 0 52 52" version="1.1" xmlns="http://www.w3.org/2000/svg" xmlns:xlink="http://www.w3.org/1999/xlink">
    <title>Group 17</title>
    <g id="Web" stroke="none" stroke-width="1" fill="none" fill-rule="evenodd">
        <g id="Client-Hub/Guided/Tiled-Service-Request-V3" transform="translate(-1258.000000, -540.000000)" stroke-width="1.216">
            <g id="Service-Request-Tiles" transform="translate(320.000000, 475.000000)">
                <g id="Auth-Rollover-Tile" transform="translate(864.000000, 0.000000)">
                    <g id="Group-17" transform="translate(75.000000, 66.000000)">
                        <polyline id="Stroke-1" stroke="#005A98" points="11.9044503 40.4759233 4.76145028 40.4759233 4.76145028 47.6189233"></polyline>
                        <g id="Group-16">
                            <path d="M47.7523503,14.8415233 C49.2223503,18.0645233 49.9913503,21.5315233 49.9984006,24.9985233 C50.0113503,31.4105233 47.5033503,37.8275233 42.5993503,42.7315233 C37.7693503,47.5615233 31.3893503,49.9355233 24.9993503,49.9975233 C18.0153503,50.0665233 12.9023503,47.9335233 8.33335028,44.0475233 C7.52435028,43.3595233 4.76135028,40.4745233 4.76135028,40.4745233" id="Stroke-2" stroke="#005A98"></path>
                            <path d="M2.24605028,35.1576233 C0.77605028,31.9346233 0.00705027981,28.4676233 1.55431223e-15,25.0006233 C-0.0129497202,18.5886233 2.49505028,12.1716233 7.39905028,7.26762332 C12.2290503,2.43762332 18.6090503,0.063623325 24.9990503,0.00162332499 C31.9830503,-0.067376675 37.0960503,2.06562332 41.6650503,5.95162332 C42.4740503,6.63962332 45.2370503,9.52462332 45.2370503,9.52462332" id="Stroke-4" stroke="#005A98"></path>
                            <polyline id="Stroke-6" stroke="#005A98" points="38.0940503 9.52452332 45.2370503 9.52452332 45.2370503 2.38152332"></polyline>
                            <path d="M28.8127503,22.8788233 L35.7947503,22.8788233 C36.8377503,22.8788233 37.6827503,22.0338233 37.6827503,20.9908233 L37.6827503,20.9908233 C37.6827503,20.5848233 37.5547503,20.2088233 37.3357503,19.9008233 C37.2367503,19.7608233 37.1057503,19.6458233 36.9597503,19.5558233 C36.7427503,19.4218233 36.4937503,19.3508233 36.2387503,19.3508233 L35.2037503,19.3508233 L32.5857503,19.3508233 L29.5707503,19.3508233 C28.8057503,19.3508233 28.2627503,18.6028233 28.5027503,17.8768233 C30.5647503,11.6318233 28.3807503,9.97982332 26.8407503,9.88182332 C26.2597503,9.84482332 25.7537503,10.2808233 25.6737503,10.8578233 L24.9827503,15.8428233 C24.9247503,16.1998233 24.7877503,16.5388233 24.5797503,16.8348233 L20.4917503,20.5798233 C20.4917503,20.5798233 14.6167503,23.1438233 9.23675028,23.8728233" id="Stroke-8" stroke="#009CDC"></path>
                            <path d="M29.2239503,22.8788233 L36.2059503,22.8788233 C37.2489503,22.8788233 38.0939503,23.7238233 38.0939503,24.7668233 C38.0939503,25.8088233 37.2489503,26.6548233 36.2059503,26.6548233 L29.2239503,26.6548233" id="Stroke-10" stroke="#009CDC"></path>
                            <path d="M28.5660503,26.6544233 L35.5480503,26.6544233 C36.5910503,26.6544233 37.4360503,27.4994233 37.4360503,28.5424233 C37.4360503,29.5844233 36.5910503,30.4304233 35.5480503,30.4304233 L28.5660503,30.4304233" id="Stroke-12" stroke="#009CDC"></path>
                            <path d="M27.4969503,30.4300233 L34.4789503,30.4300233 C35.5219503,30.4300233 36.3669503,31.2750233 36.3669503,32.3180233 L36.3669503,32.3180233 C36.3669503,33.3600233 35.5219503,34.2060233 34.4789503,34.2060233 L27.4969503,34.2060233 C25.9059503,34.2060233 24.5589503,33.8070233 23.6889503,33.4610233 C22.8599503,33.1310233 21.9779503,32.9600233 21.0859503,32.9600233 L20.3699503,32.9600233 L13.4209503,34.2060233" id="Stroke-14" stroke="#009CDC"></path>
                        </g>
                    </g>
                </g>
            </g>
        </g>
    </g>
</svg>
