<?xml version="1.0" encoding="UTF-8"?>
<svg width="55px" height="54px" viewBox="0 0 55 54" version="1.1" xmlns="http://www.w3.org/2000/svg" xmlns:xlink="http://www.w3.org/1999/xlink">
    <title>TPA Icon</title>
    <g id="Web" stroke="none" stroke-width="1" fill="none" fill-rule="evenodd">
        <g id="Client-Hub/Guided/Tiled-Contact-Change-V3" transform="translate(-608.000000, -537.000000)">
            <g id="TPA-Tile" transform="translate(536.000000, 474.000000)">
                <g id="TPA-Icon" transform="translate(73.000000, 64.000000)">
                    <g id="Group-7" transform="translate(0.000000, 36.000000)" stroke="#005A98" stroke-width="1.216">
                        <polygon id="Stroke-1" points="17.0963157 0 13.7021507 1.33303147 13.7021507 7.73647272 16.8643704 7.73647272 13.7021507 10.8354086 18.2172311 16 22.7775916 16"></polygon>
                        <polygon id="Stroke-3" points="16.8645552 7.7362916 13.7023356 7.7362916 13.7023356 1.33375594 0 6.70301109 0 15.9998189 18.2174159 15.9998189 13.7023356 10.8352275"></polygon>
                        <polygon id="Stroke-5" points="35.605835 0 39 1.33303147 39 7.73647272 35.8377804 7.73647272 39 10.8354086 34.4849196 16 29.9245591 16"></polygon>
                    </g>
                    <polygon id="Fill-8" stroke="#005F9E" points="39.4611951 43.7979131 36.336715 43.7979131 39.4611951 46.9681403 35 52.25 53 52.25 53 42.7420968 39.4611951 37.25"></polygon>
                    <polygon id="Stroke-11" stroke="#005A98" stroke-width="1.216" stroke-linejoin="round" points="27 38 30 42.0001252 27 45 24 42.0001252"></polygon>
                    <g id="Group-24" transform="translate(12.000000, 0.000000)" stroke="#005A98" stroke-width="1.216">
                        <polygon id="Stroke-12" points="15.5357745 44.7154769 18.6428109 52 10.3576832 52 13.4647196 44.7154769"></polygon>
                        <path d="M14.5000654,32.2284269 C12.2964485,32.2284269 9.99023208,30.9813457 8.28599266,29.6384756 L8.28599266,33.2693337 L14.5000654,37.4311363 L20.7141382,33.2693337 L20.7141382,29.6384756 C18.9663168,31.0105385 16.6446651,32.2357251 14.5000654,32.2284269 Z" id="Stroke-14"></path>
                        <path d="M6.21475612,7.25441796 C8.28581106,6.21351116 11.3565291,8.29532476 13.4648104,8.29532476 C16.5709388,8.29532476 17.6069202,5.17351663 19.6779752,5.17351663 C24.8197482,5.17351663 26.9280294,14.538941 26.9280294,14.538941 L27.4419343,14.0216806 C26.7073953,6.74536801 21.6909207,0 14.4635655,0 C7.73467983,0 2.20430032,6.3102124 1.51334337,14.4057487 L3.10771973,15.6090407 C3.10771973,15.6090407 4.07742016,8.32451759 6.21475612,7.25441796 Z" id="Stroke-16"></path>
                        <path d="M27.8535122,14.4203452 C27.7318457,14.4148715 27.6101792,14.4404152 27.5012241,14.4942395 C27.5012241,14.3318544 27.4567341,14.1767675 27.4422067,14.0216806 L26.9283018,14.5380287 C26.9283018,14.5380287 24.8572469,5.17351663 19.6782476,5.17351663 C17.6071926,5.17351663 16.5712112,8.29532476 13.4641748,8.29532476 C11.3931198,8.29532476 8.32330978,6.21351116 6.21502851,7.25441796 C4.10674724,8.29441249 3.10799212,15.5789355 3.10799212,15.5789355 L1.51361576,14.3756436 C1.52632718,14.4778185 1.45369045,14.5708707 1.35290698,14.5827303 C1.25121555,14.5945899 1.15860371,14.5225201 1.14680024,14.4203452 C0.00821939705,14.5234323 -0.0280989711,16.0368981 0.00821939705,16.4428608 C0.514860632,21.7559557 1.88133923,22.5231797 2.77749497,22.4200925 C5.10550236,27.8298886 11.1071127,33.6082442 16.6229649,31.8740077 C20.0459711,30.8413114 24.1072726,27.3427333 26.2228175,22.4200925 C27.1189732,22.5231797 28.4854518,21.7559557 28.9920931,16.4428608 C29.0284114,16.0368981 28.9848294,14.5234323 27.8535122,14.4203452 Z" id="Stroke-18"></path>
                        <polygon id="Stroke-20" points="20.7140474 33.26906 14.4999746 37.4317749 17.607011 41.5935776 23.8210838 36.3908681"></polygon>
                        <polygon id="Stroke-22" points="8.28617425 33.26906 5.17913786 36.3908681 11.3932106 41.5935776 14.500247 37.4317749"></polygon>
                    </g>
                </g>
            </g>
        </g>
    </g>
</svg>
