<?xml version="1.0" encoding="UTF-8"?>
<svg width="64px" height="58px" viewBox="0 0 64 58" version="1.1" xmlns="http://www.w3.org/2000/svg" xmlns:xlink="http://www.w3.org/1999/xlink">
    <title>Unsure Icon</title>
    <g id="Web" stroke="none" stroke-width="1" fill="none" fill-rule="evenodd">
        <g id="Client-Hub/Guided/Tiled-Service-Request-V3" transform="translate(-1468.000000, -536.000000)">
            <g id="Service-Request-Tiles" transform="translate(320.000000, 475.000000)">
                <g id="Uncertain-Tile" transform="translate(1080.000000, 0.000000)">
                    <g id="Unsure-Icon" transform="translate(69.000000, 62.000000)">
                        <path d="M58.2921,0.000627835234 L39.0601,0.000627835234 C37.0831,-0.0323721648 35.4531,1.54162784 35.4161,3.51862784 L35.4161,21.8916278 C35.4531,23.8846278 37.0991,25.4716278 39.0921,25.4346278 L39.0931,25.4346278 L43.9851,25.4346278 L44.0971,30.7446278 L50.1161,25.4346278 L58.5771,25.4346278 C60.4261,25.4856278 61.9671,24.0276278 62.0181,22.1776278 C62.0191,22.1466278 62.0191,22.1156278 62.0191,22.0846278 L62.0191,3.58562784 C61.9781,1.56662784 60.3101,-0.0363721648 58.2921,0.000627835234 Z" id="Stroke-1" stroke="#005A98" stroke-width="1.216"></path>
                        <path d="M49.2615,19.6183278 C49.2615,19.9063278 49.1585,20.1633278 48.9535,20.3893278 C48.7475,20.6143278 48.4805,20.7283278 48.1525,20.7283278 C47.8235,20.7283278 47.5565,20.6143278 47.3505,20.3893278 C47.1455,20.1633278 47.0435,19.9063278 47.0435,19.6183278 C47.0435,19.3303278 47.1455,19.0753278 47.3505,18.8473278 C47.5565,18.6223278 47.8235,18.5103278 48.1525,18.5103278 C48.4805,18.5103278 48.7475,18.6223278 48.9535,18.8473278 C49.1585,19.0753278 49.2615,19.3303278 49.2615,19.6183278 L49.2615,19.6183278 Z M48.7275,16.6613278 L47.2895,16.6613278 L47.2895,15.4263278 C47.2895,15.0413278 47.3335,14.6953278 47.4225,14.3863278 C47.5125,14.0773278 47.6355,13.7993278 47.7935,13.5523278 C47.9505,13.3063278 48.1285,13.0823278 48.3275,12.8833278 C48.5255,12.6843278 48.7275,12.4893278 48.9335,12.2963278 L49.5085,11.7823278 C49.8495,11.5073278 50.1345,11.1923278 50.3605,10.8363278 C50.5865,10.4783278 50.6995,10.0333278 50.6995,9.49732784 C50.6995,9.11232784 50.6305,8.76932784 50.4935,8.46932784 C50.3565,8.16632784 50.1715,7.91232784 49.9395,7.70632784 C49.7065,7.50132784 49.4365,7.34232784 49.1275,7.23332784 C48.8195,7.12332784 48.4875,7.06832784 48.1315,7.06832784 C47.3915,7.06832784 46.7925,7.29332784 46.3345,7.74632784 C45.8755,8.19832784 45.5915,8.77332784 45.4825,9.47232784 L44.0855,9.22432784 C44.2905,8.15632784 44.7595,7.32232784 45.4925,6.71832784 C46.2245,6.11732784 47.1255,5.81632784 48.1935,5.81632784 C48.7405,5.81632784 49.2585,5.89432784 49.7435,6.05132784 C50.2305,6.20932784 50.6515,6.44132784 51.0075,6.75032784 C51.3635,7.05832784 51.6465,7.43732784 51.8595,7.89032784 C52.0715,8.34232784 52.1785,8.85532784 52.1785,9.43032784 C52.1785,9.86932784 52.1295,10.2523278 52.0345,10.5803278 C51.9385,10.9093278 51.8045,11.2033278 51.6335,11.4643278 C51.4625,11.7253278 51.2605,11.9603278 51.0275,12.1733278 C50.7955,12.3853278 50.5485,12.6013278 50.2885,12.8203278 C50.0015,13.0523278 49.7575,13.2643278 49.5595,13.4573278 C49.3605,13.6493278 49.1995,13.8493278 49.0765,14.0623278 C48.9535,14.2743278 48.8635,14.5113278 48.8095,14.7703278 C48.7545,15.0313278 48.7275,15.3453278 48.7275,15.7153278 L48.7275,16.6613278 Z" id="Fill-3" fill="#0C99D6"></path>
                        <path d="M18.5693,32.8821278 C23.2263,32.7821278 26.9203,28.9251278 26.8203,24.2681278 C26.8193,24.2611278 26.8193,24.2541278 26.8193,24.2471278 C26.8153,24.1821278 26.8153,24.1181278 26.8193,24.0541278 L26.8193,21.1311278 C26.9643,16.5811278 23.3943,12.7761278 18.8443,12.6311278 C14.2953,12.4861278 10.4893,16.0561278 10.3443,20.6061278 C10.3383,20.7811278 10.3383,20.9561278 10.3443,21.1311278 L10.3443,24.0541278 C10.1263,28.7121278 13.7253,32.6641278 18.3833,32.8821278 C18.3843,32.8821278 18.3843,32.8821278 18.3853,32.8821278 L18.5693,32.8821278 Z" id="Stroke-5" stroke="#005A98" stroke-width="1.216"></path>
                        <line x1="8.2336" y1="51.4176278" x2="8.2336" y2="56.9996278" id="Stroke-7" stroke="#005A98" stroke-width="1.216"></line>
                        <path d="M37.063,57.0000278 L37.063,51.4180278 C37.063,42.2040278 32.079,39.0630278 24.709,39.0630278 L12.354,39.0630278 C4.984,39.0630278 0,42.1710278 0,51.4180278 L0,57.0000278" id="Stroke-9" stroke="#005A98" stroke-width="1.216"></path>
                        <line x1="28.8296" y1="51.4176278" x2="28.8296" y2="56.9996278" id="Stroke-11" stroke="#005A98" stroke-width="1.216"></line>
                    </g>
                </g>
            </g>
        </g>
    </g>
</svg>
