<svg width="60px" height="56px" viewBox="0 0 60 56" version="1.1" xmlns="http://www.w3.org/2000/svg" xmlns:xlink="http://www.w3.org/1999/xlink">
    <title>Contacts Icon</title>
    <g id="Web" stroke="none" stroke-width="1" fill="none" fill-rule="evenodd" stroke-linejoin="round">
        <g id="Client-Hub/Guided/Tiled-Service-Request-V3" transform="translate(-390.000000, -528.000000)" stroke-width="1.216">
            <g id="Service-Request-Tiles" transform="translate(320.000000, 475.000000)">
                <g id="Contacts-Icon" transform="translate(71.000000, 54.000000)">
                    <path d="M12.9009,19.343 C9.3389,19.343 6.4509,16.457 6.4509,12.895 L6.4509,6.448 C6.4509,2.887 9.3389,0 12.9009,0 L45.1529,0 C48.7149,0 51.6029,2.887 51.6029,6.448 L51.6029,12.895 C51.6029,16.457 48.7149,19.343 45.1529,19.343 L33.3269,19.343 L29.0269,25.791 L24.7269,19.343 L12.9009,19.343 Z" id="Stroke-1" stroke="#1094D2"></path>
                    <path d="M19.3512,9.6717 C19.3512,10.2647 18.8702,10.7467 18.2762,10.7467 C17.6822,10.7467 17.2012,10.2647 17.2012,9.6717 C17.2012,9.0777 17.6822,8.5967 18.2762,8.5967 C18.8702,8.5967 19.3512,9.0777 19.3512,9.6717 Z" id="Stroke-3" stroke="#1094D2"></path>
                    <path d="M30.1017,9.6717 C30.1017,10.2647 29.6207,10.7467 29.0267,10.7467 C28.4327,10.7467 27.9517,10.2647 27.9517,9.6717 C27.9517,9.0777 28.4327,8.5967 29.0267,8.5967 C29.6207,8.5967 30.1017,9.0777 30.1017,9.6717 Z" id="Stroke-5" stroke="#1094D2"></path>
                    <path d="M40.8524,9.6717 C40.8524,10.2647 40.3714,10.7467 39.7774,10.7467 C39.1834,10.7467 38.7024,10.2647 38.7024,9.6717 C38.7024,9.0777 39.1834,8.5967 39.7774,8.5967 C40.3714,8.5967 40.8524,9.0777 40.8524,9.6717 Z" id="Stroke-7" stroke="#1094D2"></path>
                    <path d="M34.402,35.4621 C34.402,38.4291 31.995,40.8351 29.027,40.8351 C26.058,40.8351 23.651,38.4291 23.651,35.4621 C23.651,32.4941 26.058,30.0891 29.027,30.0891 C31.995,30.0891 34.402,32.4941 34.402,35.4621 Z" id="Stroke-9" stroke="#1B5F9F"></path>
                    <path d="M40.8524,50.5063 L40.8524,47.0673 C40.8514,45.9113 40.1114,44.8863 39.0144,44.5213 L34.4024,42.9843 L29.0264,48.3573 L23.6514,42.9843 L19.0394,44.5213 C17.9424,44.8863 17.2024,45.9113 17.2014,47.0673 L17.2014,50.5063 C17.2014,52.2873 18.6454,53.7303 20.4264,53.7303 L37.6274,53.7303 C39.4084,53.7303 40.8524,52.2873 40.8524,50.5063 Z" id="Stroke-11" stroke="#1B5F9F"></path>
                    <path d="M17.2011,29.0145 C17.2011,31.9815 14.7941,34.3875 11.8261,34.3875 C8.8571,34.3875 6.4501,31.9815 6.4501,29.0145 C6.4501,26.0465 8.8571,23.6415 11.8261,23.6415 C14.7941,23.6415 17.2011,26.0465 17.2011,29.0145 Z" id="Stroke-13" stroke="#1B5F9F"></path>
                    <path d="M51.6029,29.0145 C51.6029,31.9815 49.1959,34.3875 46.2279,34.3875 C43.2589,34.3875 40.8519,31.9815 40.8519,29.0145 C40.8519,26.0465 43.2589,23.6415 46.2279,23.6415 C49.1959,23.6415 51.6029,26.0465 51.6029,29.0145 Z" id="Stroke-15" stroke="#1B5F9F"></path>
                    <path d="M40.8524,47.2826 L54.8284,47.2826 C56.6094,47.2826 58.0534,45.8396 58.0534,44.0586 L58.0534,40.6196 C58.0524,39.4636 57.3114,38.4386 56.2154,38.0736 L51.6034,36.5366 L46.2274,41.9096 L40.8524,36.5366 L38.5194,37.3106" id="Stroke-17" stroke="#1B5F9F"></path>
                    <path d="M19.534,37.3103 L17.201,36.5363 L11.826,41.9093 L6.451,36.5363 L1.839,38.0733 C0.742,38.4383 0.001,39.4643 0,40.6203 L0,44.0593 C0,45.8393 1.444,47.2823 3.225,47.2823 L17.201,47.2823" id="Stroke-19" stroke="#1B5F9F"></path>
                </g>
            </g>
        </g>
    </g>
</svg>
