<?xml version="1.0" encoding="UTF-8"?>
<svg width="50px" height="59px" viewBox="0 0 50 59" version="1.1" xmlns="http://www.w3.org/2000/svg" xmlns:xlink="http://www.w3.org/1999/xlink">
    <title>Plan Details Icon</title>
    <g id="Web" stroke="none" stroke-width="1" fill="none" fill-rule="evenodd">
        <g id="Client-Hub/Guided/Tiled-Service-Request-V3" transform="translate(-610.000000, -529.000000)" stroke-width="1.216">
            <g id="Service-Request-Tiles" transform="translate(320.000000, 475.000000)">
                <g id="Plan-Details-Tile" transform="translate(216.000000, 0.000000)">
                    <g id="Plan-Details-Icon" transform="translate(75.000000, 55.000000)">
                        <polyline id="Stroke-1" stroke="#1094D2" points="-5.55111512e-16 47.332 -5.55111512e-16 0 39.183 0"></polyline>
                        <polyline id="Stroke-3" stroke="#055998" points="42.5609 53.5042 6.3039 53.5042 6.3039 6.1732 45.4879 6.1732 45.4879 50.0272"></polyline>
                        <line x1="13.8642" y1="13.5433" x2="32.7892" y2="13.5433" id="Stroke-4" stroke="#1094D2"></line>
                        <line x1="13.8642" y1="18.6226" x2="37.9262" y2="18.6226" id="Stroke-5" stroke="#1094D2"></line>
                        <line x1="13.8642" y1="28.7812" x2="27.4202" y2="28.7812" id="Stroke-6" stroke="#1094D2"></line>
                        <line x1="13.8642" y1="23.7019" x2="32.7892" y2="23.7019" id="Stroke-7" stroke="#1094D2"></line>
                        <polyline id="Stroke-8" stroke="#1094D2" points="41.7379 29.4141 36.6959 38.6391 30.5509 37.4691 22.8589 45.2451 18.1509 43.6761 14.2909 46.8831"></polyline>
                        <g id="Group-15" transform="translate(26.649288, 29.760500)" stroke="#055998">
                            <path d="M7.3019122,0 C5.8529122,0 4.4369122,0.431 3.2109122,1.262 C-0.130087801,3.527 -1.0060878,8.086 1.2579122,11.428 C3.5219122,14.769 8.0809122,15.647 11.4229122,13.381 C14.7649122,11.117 15.6409122,6.557 13.3769122,3.216 C12.2799122,1.597 10.6179122,0.503 8.6989122,0.134 C8.2329122,0.044 7.7659122,0 7.3019122,0 Z" id="Stroke-9"></path>
                            <path d="M21.1737122,23.5067 L16.6307122,16.8027 L12.6717122,19.4857 L17.2147122,26.1907 C17.5737122,26.7187 18.1167122,27.0767 18.7437122,27.1967 C18.8957122,27.2257 19.0487122,27.2397 19.1997122,27.2397 C19.6727122,27.2397 20.1357122,27.0997 20.5367122,26.8277 C21.0647122,26.4687 21.4217122,25.9267 21.5427122,25.2997 C21.6627122,24.6717 21.5317122,24.0357 21.1737122,23.5067 Z" id="Stroke-11"></path>
                            <line x1="14.5043122" y1="18.1014" x2="11.2763122" y2="13.3384" id="Stroke-13"></line>
                        </g>
                    </g>
                </g>
            </g>
        </g>
    </g>
</svg>
